<?xml version="1.0" encoding="utf-8"?>
<svg xmlns="http://www.w3.org/2000/svg" xmlns:xlink="http://www.w3.org/1999/xlink" width="600" height="400" viewBox="0 0 2400 1600">
<defs>
  <clipPath id="clip900">
    <rect x="0" y="0" width="2400" height="1600"/>
  </clipPath>
</defs>
<path clip-path="url(#clip900)" d="
M0 1600 L2400 1600 L2400 0 L0 0  Z
  " fill="#ffffff" fill-rule="evenodd" fill-opacity="1"/>
<defs>
  <clipPath id="clip901">
    <rect x="480" y="0" width="1681" height="1600"/>
  </clipPath>
</defs>
<path clip-path="url(#clip900)" d="
M239.19 686.448 L1157.63 686.448 L1157.63 47.2441 L239.19 47.2441  Z
  " fill="#ffffff" fill-rule="evenodd" fill-opacity="1"/>
<defs>
  <clipPath id="clip902">
    <rect x="239" y="47" width="919" height="640"/>
  </clipPath>
</defs>
<polyline clip-path="url(#clip902)" style="stroke:#000000; stroke-linecap:butt; stroke-linejoin:round; stroke-width:2; stroke-opacity:0.1; fill:none" points="
  265.184,686.448 265.184,47.2441 
  "/>
<polyline clip-path="url(#clip902)" style="stroke:#000000; stroke-linecap:butt; stroke-linejoin:round; stroke-width:2; stroke-opacity:0.1; fill:none" points="
  481.797,686.448 481.797,47.2441 
  "/>
<polyline clip-path="url(#clip902)" style="stroke:#000000; stroke-linecap:butt; stroke-linejoin:round; stroke-width:2; stroke-opacity:0.1; fill:none" points="
  698.409,686.448 698.409,47.2441 
  "/>
<polyline clip-path="url(#clip902)" style="stroke:#000000; stroke-linecap:butt; stroke-linejoin:round; stroke-width:2; stroke-opacity:0.1; fill:none" points="
  915.022,686.448 915.022,47.2441 
  "/>
<polyline clip-path="url(#clip902)" style="stroke:#000000; stroke-linecap:butt; stroke-linejoin:round; stroke-width:2; stroke-opacity:0.1; fill:none" points="
  1131.64,686.448 1131.64,47.2441 
  "/>
<polyline clip-path="url(#clip900)" style="stroke:#000000; stroke-linecap:butt; stroke-linejoin:round; stroke-width:4; stroke-opacity:1; fill:none" points="
  239.19,686.448 1157.63,686.448 
  "/>
<polyline clip-path="url(#clip900)" style="stroke:#000000; stroke-linecap:butt; stroke-linejoin:round; stroke-width:4; stroke-opacity:1; fill:none" points="
  265.184,686.448 265.184,667.55 
  "/>
<polyline clip-path="url(#clip900)" style="stroke:#000000; stroke-linecap:butt; stroke-linejoin:round; stroke-width:4; stroke-opacity:1; fill:none" points="
  481.797,686.448 481.797,667.55 
  "/>
<polyline clip-path="url(#clip900)" style="stroke:#000000; stroke-linecap:butt; stroke-linejoin:round; stroke-width:4; stroke-opacity:1; fill:none" points="
  698.409,686.448 698.409,667.55 
  "/>
<polyline clip-path="url(#clip900)" style="stroke:#000000; stroke-linecap:butt; stroke-linejoin:round; stroke-width:4; stroke-opacity:1; fill:none" points="
  915.022,686.448 915.022,667.55 
  "/>
<polyline clip-path="url(#clip900)" style="stroke:#000000; stroke-linecap:butt; stroke-linejoin:round; stroke-width:4; stroke-opacity:1; fill:none" points="
  1131.64,686.448 1131.64,667.55 
  "/>
<path clip-path="url(#clip900)" d="M219.247 732.019 L248.922 732.019 L248.922 735.954 L219.247 735.954 L219.247 732.019 Z" fill="#000000" fill-rule="evenodd" fill-opacity="1" /><path clip-path="url(#clip900)" d="M259.825 744.913 L267.464 744.913 L267.464 718.547 L259.154 720.214 L259.154 715.955 L267.418 714.288 L272.094 714.288 L272.094 744.913 L279.732 744.913 L279.732 748.848 L259.825 748.848 L259.825 744.913 Z" fill="#000000" fill-rule="evenodd" fill-opacity="1" /><path clip-path="url(#clip900)" d="M299.177 717.367 Q295.566 717.367 293.737 720.931 Q291.931 724.473 291.931 731.603 Q291.931 738.709 293.737 742.274 Q295.566 745.815 299.177 745.815 Q302.811 745.815 304.617 742.274 Q306.445 738.709 306.445 731.603 Q306.445 724.473 304.617 720.931 Q302.811 717.367 299.177 717.367 M299.177 713.663 Q304.987 713.663 308.042 718.269 Q311.121 722.853 311.121 731.603 Q311.121 740.329 308.042 744.936 Q304.987 749.519 299.177 749.519 Q293.367 749.519 290.288 744.936 Q287.232 740.329 287.232 731.603 Q287.232 722.853 290.288 718.269 Q293.367 713.663 299.177 713.663 Z" fill="#000000" fill-rule="evenodd" fill-opacity="1" /><path clip-path="url(#clip900)" d="M451.438 732.019 L481.114 732.019 L481.114 735.954 L451.438 735.954 L451.438 732.019 Z" fill="#000000" fill-rule="evenodd" fill-opacity="1" /><path clip-path="url(#clip900)" d="M491.253 714.288 L509.609 714.288 L509.609 718.223 L495.535 718.223 L495.535 726.695 Q496.554 726.348 497.572 726.186 Q498.591 726.001 499.609 726.001 Q505.396 726.001 508.776 729.172 Q512.155 732.343 512.155 737.76 Q512.155 743.339 508.683 746.44 Q505.211 749.519 498.892 749.519 Q496.716 749.519 494.447 749.149 Q492.202 748.778 489.794 748.038 L489.794 743.339 Q491.878 744.473 494.1 745.028 Q496.322 745.584 498.799 745.584 Q502.804 745.584 505.141 743.478 Q507.479 741.371 507.479 737.76 Q507.479 734.149 505.141 732.042 Q502.804 729.936 498.799 729.936 Q496.924 729.936 495.049 730.353 Q493.197 730.769 491.253 731.649 L491.253 714.288 Z" fill="#000000" fill-rule="evenodd" fill-opacity="1" /><path clip-path="url(#clip900)" d="M698.409 717.367 Q694.798 717.367 692.97 720.931 Q691.164 724.473 691.164 731.603 Q691.164 738.709 692.97 742.274 Q694.798 745.815 698.409 745.815 Q702.044 745.815 703.849 742.274 Q705.678 738.709 705.678 731.603 Q705.678 724.473 703.849 720.931 Q702.044 717.367 698.409 717.367 M698.409 713.663 Q704.22 713.663 707.275 718.269 Q710.354 722.853 710.354 731.603 Q710.354 740.329 707.275 744.936 Q704.22 749.519 698.409 749.519 Q692.599 749.519 689.521 744.936 Q686.465 740.329 686.465 731.603 Q686.465 722.853 689.521 718.269 Q692.599 713.663 698.409 713.663 Z" fill="#000000" fill-rule="evenodd" fill-opacity="1" /><path clip-path="url(#clip900)" d="M905.3 714.288 L923.656 714.288 L923.656 718.223 L909.582 718.223 L909.582 726.695 Q910.601 726.348 911.619 726.186 Q912.638 726.001 913.657 726.001 Q919.444 726.001 922.823 729.172 Q926.203 732.343 926.203 737.76 Q926.203 743.339 922.731 746.44 Q919.258 749.519 912.939 749.519 Q910.763 749.519 908.495 749.149 Q906.249 748.778 903.842 748.038 L903.842 743.339 Q905.925 744.473 908.147 745.028 Q910.37 745.584 912.846 745.584 Q916.851 745.584 919.189 743.478 Q921.527 741.371 921.527 737.76 Q921.527 734.149 919.189 732.042 Q916.851 729.936 912.846 729.936 Q910.971 729.936 909.096 730.353 Q907.245 730.769 905.3 731.649 L905.3 714.288 Z" fill="#000000" fill-rule="evenodd" fill-opacity="1" /><path clip-path="url(#clip900)" d="M1106.32 744.913 L1113.96 744.913 L1113.96 718.547 L1105.65 720.214 L1105.65 715.955 L1113.92 714.288 L1118.59 714.288 L1118.59 744.913 L1126.23 744.913 L1126.23 748.848 L1106.32 748.848 L1106.32 744.913 Z" fill="#000000" fill-rule="evenodd" fill-opacity="1" /><path clip-path="url(#clip900)" d="M1145.67 717.367 Q1142.06 717.367 1140.23 720.931 Q1138.43 724.473 1138.43 731.603 Q1138.43 738.709 1140.23 742.274 Q1142.06 745.815 1145.67 745.815 Q1149.31 745.815 1151.11 742.274 Q1152.94 738.709 1152.94 731.603 Q1152.94 724.473 1151.11 720.931 Q1149.31 717.367 1145.67 717.367 M1145.67 713.663 Q1151.48 713.663 1154.54 718.269 Q1157.62 722.853 1157.62 731.603 Q1157.62 740.329 1154.54 744.936 Q1151.48 749.519 1145.67 749.519 Q1139.86 749.519 1136.79 744.936 Q1133.73 740.329 1133.73 731.603 Q1133.73 722.853 1136.79 718.269 Q1139.86 713.663 1145.67 713.663 Z" fill="#000000" fill-rule="evenodd" fill-opacity="1" /><polyline clip-path="url(#clip902)" style="stroke:#000000; stroke-linecap:butt; stroke-linejoin:round; stroke-width:2; stroke-opacity:0.1; fill:none" points="
  239.19,668.357 1157.63,668.357 
  "/>
<polyline clip-path="url(#clip902)" style="stroke:#000000; stroke-linecap:butt; stroke-linejoin:round; stroke-width:2; stroke-opacity:0.1; fill:none" points="
  239.19,517.602 1157.63,517.602 
  "/>
<polyline clip-path="url(#clip902)" style="stroke:#000000; stroke-linecap:butt; stroke-linejoin:round; stroke-width:2; stroke-opacity:0.1; fill:none" points="
  239.19,366.846 1157.63,366.846 
  "/>
<polyline clip-path="url(#clip902)" style="stroke:#000000; stroke-linecap:butt; stroke-linejoin:round; stroke-width:2; stroke-opacity:0.1; fill:none" points="
  239.19,216.09 1157.63,216.09 
  "/>
<polyline clip-path="url(#clip902)" style="stroke:#000000; stroke-linecap:butt; stroke-linejoin:round; stroke-width:2; stroke-opacity:0.1; fill:none" points="
  239.19,65.3348 1157.63,65.3348 
  "/>
<polyline clip-path="url(#clip900)" style="stroke:#000000; stroke-linecap:butt; stroke-linejoin:round; stroke-width:4; stroke-opacity:1; fill:none" points="
  239.19,686.448 239.19,47.2441 
  "/>
<polyline clip-path="url(#clip900)" style="stroke:#000000; stroke-linecap:butt; stroke-linejoin:round; stroke-width:4; stroke-opacity:1; fill:none" points="
  239.19,668.357 258.088,668.357 
  "/>
<polyline clip-path="url(#clip900)" style="stroke:#000000; stroke-linecap:butt; stroke-linejoin:round; stroke-width:4; stroke-opacity:1; fill:none" points="
  239.19,517.602 258.088,517.602 
  "/>
<polyline clip-path="url(#clip900)" style="stroke:#000000; stroke-linecap:butt; stroke-linejoin:round; stroke-width:4; stroke-opacity:1; fill:none" points="
  239.19,366.846 258.088,366.846 
  "/>
<polyline clip-path="url(#clip900)" style="stroke:#000000; stroke-linecap:butt; stroke-linejoin:round; stroke-width:4; stroke-opacity:1; fill:none" points="
  239.19,216.09 258.088,216.09 
  "/>
<polyline clip-path="url(#clip900)" style="stroke:#000000; stroke-linecap:butt; stroke-linejoin:round; stroke-width:4; stroke-opacity:1; fill:none" points="
  239.19,65.3348 258.088,65.3348 
  "/>
<path clip-path="url(#clip900)" d="M111.316 668.809 L140.992 668.809 L140.992 672.744 L111.316 672.744 L111.316 668.809 Z" fill="#000000" fill-rule="evenodd" fill-opacity="1" /><path clip-path="url(#clip900)" d="M151.894 681.702 L159.533 681.702 L159.533 655.336 L151.223 657.003 L151.223 652.744 L159.487 651.077 L164.163 651.077 L164.163 681.702 L171.802 681.702 L171.802 685.637 L151.894 685.637 L151.894 681.702 Z" fill="#000000" fill-rule="evenodd" fill-opacity="1" /><path clip-path="url(#clip900)" d="M191.246 654.156 Q187.635 654.156 185.806 657.721 Q184.001 661.262 184.001 668.392 Q184.001 675.498 185.806 679.063 Q187.635 682.605 191.246 682.605 Q194.88 682.605 196.686 679.063 Q198.514 675.498 198.514 668.392 Q198.514 661.262 196.686 657.721 Q194.88 654.156 191.246 654.156 M191.246 650.452 Q197.056 650.452 200.112 655.059 Q203.19 659.642 203.19 668.392 Q203.19 677.119 200.112 681.725 Q197.056 686.308 191.246 686.308 Q185.436 686.308 182.357 681.725 Q179.302 677.119 179.302 668.392 Q179.302 659.642 182.357 655.059 Q185.436 650.452 191.246 650.452 Z" fill="#000000" fill-rule="evenodd" fill-opacity="1" /><path clip-path="url(#clip900)" d="M142.473 518.053 L172.149 518.053 L172.149 521.988 L142.473 521.988 L142.473 518.053 Z" fill="#000000" fill-rule="evenodd" fill-opacity="1" /><path clip-path="url(#clip900)" d="M182.288 500.322 L200.644 500.322 L200.644 504.257 L186.57 504.257 L186.57 512.729 Q187.589 512.382 188.607 512.22 Q189.626 512.034 190.644 512.034 Q196.431 512.034 199.811 515.206 Q203.19 518.377 203.19 523.794 Q203.19 529.372 199.718 532.474 Q196.246 535.553 189.927 535.553 Q187.751 535.553 185.482 535.183 Q183.237 534.812 180.829 534.071 L180.829 529.372 Q182.913 530.507 185.135 531.062 Q187.357 531.618 189.834 531.618 Q193.839 531.618 196.177 529.511 Q198.514 527.405 198.514 523.794 Q198.514 520.183 196.177 518.076 Q193.839 515.97 189.834 515.97 Q187.959 515.97 186.084 516.386 Q184.232 516.803 182.288 517.683 L182.288 500.322 Z" fill="#000000" fill-rule="evenodd" fill-opacity="1" /><path clip-path="url(#clip900)" d="M191.246 352.645 Q187.635 352.645 185.806 356.209 Q184.001 359.751 184.001 366.881 Q184.001 373.987 185.806 377.552 Q187.635 381.094 191.246 381.094 Q194.88 381.094 196.686 377.552 Q198.514 373.987 198.514 366.881 Q198.514 359.751 196.686 356.209 Q194.88 352.645 191.246 352.645 M191.246 348.941 Q197.056 348.941 200.112 353.547 Q203.19 358.131 203.19 366.881 Q203.19 375.608 200.112 380.214 Q197.056 384.797 191.246 384.797 Q185.436 384.797 182.357 380.214 Q179.302 375.608 179.302 366.881 Q179.302 358.131 182.357 353.547 Q185.436 348.941 191.246 348.941 Z" fill="#000000" fill-rule="evenodd" fill-opacity="1" /><path clip-path="url(#clip900)" d="M182.288 198.81 L200.644 198.81 L200.644 202.746 L186.57 202.746 L186.57 211.218 Q187.589 210.87 188.607 210.708 Q189.626 210.523 190.644 210.523 Q196.431 210.523 199.811 213.695 Q203.19 216.866 203.19 222.282 Q203.19 227.861 199.718 230.963 Q196.246 234.042 189.927 234.042 Q187.751 234.042 185.482 233.671 Q183.237 233.301 180.829 232.56 L180.829 227.861 Q182.913 228.995 185.135 229.551 Q187.357 230.107 189.834 230.107 Q193.839 230.107 196.177 228 Q198.514 225.894 198.514 222.282 Q198.514 218.671 196.177 216.565 Q193.839 214.458 189.834 214.458 Q187.959 214.458 186.084 214.875 Q184.232 215.292 182.288 216.171 L182.288 198.81 Z" fill="#000000" fill-rule="evenodd" fill-opacity="1" /><path clip-path="url(#clip900)" d="M151.894 78.6796 L159.533 78.6796 L159.533 52.314 L151.223 53.9807 L151.223 49.7214 L159.487 48.0548 L164.163 48.0548 L164.163 78.6796 L171.802 78.6796 L171.802 82.6148 L151.894 82.6148 L151.894 78.6796 Z" fill="#000000" fill-rule="evenodd" fill-opacity="1" /><path clip-path="url(#clip900)" d="M191.246 51.1335 Q187.635 51.1335 185.806 54.6983 Q184.001 58.2399 184.001 65.3695 Q184.001 72.4759 185.806 76.0407 Q187.635 79.5824 191.246 79.5824 Q194.88 79.5824 196.686 76.0407 Q198.514 72.4759 198.514 65.3695 Q198.514 58.2399 196.686 54.6983 Q194.88 51.1335 191.246 51.1335 M191.246 47.4298 Q197.056 47.4298 200.112 52.0362 Q203.19 56.6195 203.19 65.3695 Q203.19 74.0963 200.112 78.7028 Q197.056 83.2861 191.246 83.2861 Q185.436 83.2861 182.357 78.7028 Q179.302 74.0963 179.302 65.3695 Q179.302 56.6195 182.357 52.0362 Q185.436 47.4298 191.246 47.4298 Z" fill="#000000" fill-rule="evenodd" fill-opacity="1" /><polyline clip-path="url(#clip902)" style="stroke:#009af9; stroke-linecap:butt; stroke-linejoin:round; stroke-width:4; stroke-opacity:1; fill:none" points="
  265.184,668.357 308.506,638.206 351.829,608.055 395.152,577.904 438.474,547.753 481.797,517.602 525.119,487.45 568.442,457.299 611.764,427.148 655.087,396.997 
  698.409,366.846 741.732,336.695 785.055,306.544 828.377,276.393 871.7,246.241 915.022,216.09 958.345,185.939 1001.67,155.788 1044.99,125.637 1088.31,95.4859 
  1131.64,65.3348 
  "/>
<path clip-path="url(#clip900)" d="
M1434.32 686.448 L2352.76 686.448 L2352.76 47.2441 L1434.32 47.2441  Z
  " fill="#ffffff" fill-rule="evenodd" fill-opacity="1"/>
<defs>
  <clipPath id="clip903">
    <rect x="1434" y="47" width="919" height="640"/>
  </clipPath>
</defs>
<polyline clip-path="url(#clip903)" style="stroke:#000000; stroke-linecap:butt; stroke-linejoin:round; stroke-width:2; stroke-opacity:0.1; fill:none" points="
  1460.31,686.448 1460.31,47.2441 
  "/>
<polyline clip-path="url(#clip903)" style="stroke:#000000; stroke-linecap:butt; stroke-linejoin:round; stroke-width:2; stroke-opacity:0.1; fill:none" points="
  1676.92,686.448 1676.92,47.2441 
  "/>
<polyline clip-path="url(#clip903)" style="stroke:#000000; stroke-linecap:butt; stroke-linejoin:round; stroke-width:2; stroke-opacity:0.1; fill:none" points="
  1893.54,686.448 1893.54,47.2441 
  "/>
<polyline clip-path="url(#clip903)" style="stroke:#000000; stroke-linecap:butt; stroke-linejoin:round; stroke-width:2; stroke-opacity:0.1; fill:none" points="
  2110.15,686.448 2110.15,47.2441 
  "/>
<polyline clip-path="url(#clip903)" style="stroke:#000000; stroke-linecap:butt; stroke-linejoin:round; stroke-width:2; stroke-opacity:0.1; fill:none" points="
  2326.76,686.448 2326.76,47.2441 
  "/>
<polyline clip-path="url(#clip900)" style="stroke:#000000; stroke-linecap:butt; stroke-linejoin:round; stroke-width:4; stroke-opacity:1; fill:none" points="
  1434.32,686.448 2352.76,686.448 
  "/>
<polyline clip-path="url(#clip900)" style="stroke:#000000; stroke-linecap:butt; stroke-linejoin:round; stroke-width:4; stroke-opacity:1; fill:none" points="
  1460.31,686.448 1460.31,667.55 
  "/>
<polyline clip-path="url(#clip900)" style="stroke:#000000; stroke-linecap:butt; stroke-linejoin:round; stroke-width:4; stroke-opacity:1; fill:none" points="
  1676.92,686.448 1676.92,667.55 
  "/>
<polyline clip-path="url(#clip900)" style="stroke:#000000; stroke-linecap:butt; stroke-linejoin:round; stroke-width:4; stroke-opacity:1; fill:none" points="
  1893.54,686.448 1893.54,667.55 
  "/>
<polyline clip-path="url(#clip900)" style="stroke:#000000; stroke-linecap:butt; stroke-linejoin:round; stroke-width:4; stroke-opacity:1; fill:none" points="
  2110.15,686.448 2110.15,667.55 
  "/>
<polyline clip-path="url(#clip900)" style="stroke:#000000; stroke-linecap:butt; stroke-linejoin:round; stroke-width:4; stroke-opacity:1; fill:none" points="
  2326.76,686.448 2326.76,667.55 
  "/>
<path clip-path="url(#clip900)" d="M1414.37 732.019 L1444.05 732.019 L1444.05 735.954 L1414.37 735.954 L1414.37 732.019 Z" fill="#000000" fill-rule="evenodd" fill-opacity="1" /><path clip-path="url(#clip900)" d="M1454.95 744.913 L1462.59 744.913 L1462.59 718.547 L1454.28 720.214 L1454.28 715.955 L1462.55 714.288 L1467.22 714.288 L1467.22 744.913 L1474.86 744.913 L1474.86 748.848 L1454.95 748.848 L1454.95 744.913 Z" fill="#000000" fill-rule="evenodd" fill-opacity="1" /><path clip-path="url(#clip900)" d="M1494.3 717.367 Q1490.69 717.367 1488.86 720.931 Q1487.06 724.473 1487.06 731.603 Q1487.06 738.709 1488.86 742.274 Q1490.69 745.815 1494.3 745.815 Q1497.94 745.815 1499.74 742.274 Q1501.57 738.709 1501.57 731.603 Q1501.57 724.473 1499.74 720.931 Q1497.94 717.367 1494.3 717.367 M1494.3 713.663 Q1500.11 713.663 1503.17 718.269 Q1506.25 722.853 1506.25 731.603 Q1506.25 740.329 1503.17 744.936 Q1500.11 749.519 1494.3 749.519 Q1488.49 749.519 1485.42 744.936 Q1482.36 740.329 1482.36 731.603 Q1482.36 722.853 1485.42 718.269 Q1488.49 713.663 1494.3 713.663 Z" fill="#000000" fill-rule="evenodd" fill-opacity="1" /><path clip-path="url(#clip900)" d="M1646.57 732.019 L1676.24 732.019 L1676.24 735.954 L1646.57 735.954 L1646.57 732.019 Z" fill="#000000" fill-rule="evenodd" fill-opacity="1" /><path clip-path="url(#clip900)" d="M1686.38 714.288 L1704.74 714.288 L1704.74 718.223 L1690.66 718.223 L1690.66 726.695 Q1691.68 726.348 1692.7 726.186 Q1693.72 726.001 1694.74 726.001 Q1700.52 726.001 1703.9 729.172 Q1707.28 732.343 1707.28 737.76 Q1707.28 743.339 1703.81 746.44 Q1700.34 749.519 1694.02 749.519 Q1691.84 749.519 1689.57 749.149 Q1687.33 748.778 1684.92 748.038 L1684.92 743.339 Q1687.01 744.473 1689.23 745.028 Q1691.45 745.584 1693.93 745.584 Q1697.93 745.584 1700.27 743.478 Q1702.61 741.371 1702.61 737.76 Q1702.61 734.149 1700.27 732.042 Q1697.93 729.936 1693.93 729.936 Q1692.05 729.936 1690.18 730.353 Q1688.32 730.769 1686.38 731.649 L1686.38 714.288 Z" fill="#000000" fill-rule="evenodd" fill-opacity="1" /><path clip-path="url(#clip900)" d="M1893.54 717.367 Q1889.93 717.367 1888.1 720.931 Q1886.29 724.473 1886.29 731.603 Q1886.29 738.709 1888.1 742.274 Q1889.93 745.815 1893.54 745.815 Q1897.17 745.815 1898.98 742.274 Q1900.81 738.709 1900.81 731.603 Q1900.81 724.473 1898.98 720.931 Q1897.17 717.367 1893.54 717.367 M1893.54 713.663 Q1899.35 713.663 1902.4 718.269 Q1905.48 722.853 1905.48 731.603 Q1905.48 740.329 1902.4 744.936 Q1899.35 749.519 1893.54 749.519 Q1887.73 749.519 1884.65 744.936 Q1881.59 740.329 1881.59 731.603 Q1881.59 722.853 1884.65 718.269 Q1887.73 713.663 1893.54 713.663 Z" fill="#000000" fill-rule="evenodd" fill-opacity="1" /><path clip-path="url(#clip900)" d="M2100.43 714.288 L2118.78 714.288 L2118.78 718.223 L2104.71 718.223 L2104.71 726.695 Q2105.73 726.348 2106.75 726.186 Q2107.77 726.001 2108.78 726.001 Q2114.57 726.001 2117.95 729.172 Q2121.33 732.343 2121.33 737.76 Q2121.33 743.339 2117.86 746.44 Q2114.39 749.519 2108.07 749.519 Q2105.89 749.519 2103.62 749.149 Q2101.38 748.778 2098.97 748.038 L2098.97 743.339 Q2101.05 744.473 2103.27 745.028 Q2105.5 745.584 2107.97 745.584 Q2111.98 745.584 2114.32 743.478 Q2116.65 741.371 2116.65 737.76 Q2116.65 734.149 2114.32 732.042 Q2111.98 729.936 2107.97 729.936 Q2106.1 729.936 2104.22 730.353 Q2102.37 730.769 2100.43 731.649 L2100.43 714.288 Z" fill="#000000" fill-rule="evenodd" fill-opacity="1" /><path clip-path="url(#clip900)" d="M2301.45 744.913 L2309.09 744.913 L2309.09 718.547 L2300.78 720.214 L2300.78 715.955 L2309.04 714.288 L2313.72 714.288 L2313.72 744.913 L2321.36 744.913 L2321.36 748.848 L2301.45 748.848 L2301.45 744.913 Z" fill="#000000" fill-rule="evenodd" fill-opacity="1" /><path clip-path="url(#clip900)" d="M2340.8 717.367 Q2337.19 717.367 2335.36 720.931 Q2333.56 724.473 2333.56 731.603 Q2333.56 738.709 2335.36 742.274 Q2337.19 745.815 2340.8 745.815 Q2344.44 745.815 2346.24 742.274 Q2348.07 738.709 2348.07 731.603 Q2348.07 724.473 2346.24 720.931 Q2344.44 717.367 2340.8 717.367 M2340.8 713.663 Q2346.61 713.663 2349.67 718.269 Q2352.75 722.853 2352.75 731.603 Q2352.75 740.329 2349.67 744.936 Q2346.61 749.519 2340.8 749.519 Q2334.99 749.519 2331.91 744.936 Q2328.86 740.329 2328.86 731.603 Q2328.86 722.853 2331.91 718.269 Q2334.99 713.663 2340.8 713.663 Z" fill="#000000" fill-rule="evenodd" fill-opacity="1" /><polyline clip-path="url(#clip903)" style="stroke:#000000; stroke-linecap:butt; stroke-linejoin:round; stroke-width:2; stroke-opacity:0.1; fill:none" points="
  1434.32,668.357 2352.76,668.357 
  "/>
<polyline clip-path="url(#clip903)" style="stroke:#000000; stroke-linecap:butt; stroke-linejoin:round; stroke-width:2; stroke-opacity:0.1; fill:none" points="
  1434.32,517.602 2352.76,517.602 
  "/>
<polyline clip-path="url(#clip903)" style="stroke:#000000; stroke-linecap:butt; stroke-linejoin:round; stroke-width:2; stroke-opacity:0.1; fill:none" points="
  1434.32,366.846 2352.76,366.846 
  "/>
<polyline clip-path="url(#clip903)" style="stroke:#000000; stroke-linecap:butt; stroke-linejoin:round; stroke-width:2; stroke-opacity:0.1; fill:none" points="
  1434.32,216.09 2352.76,216.09 
  "/>
<polyline clip-path="url(#clip903)" style="stroke:#000000; stroke-linecap:butt; stroke-linejoin:round; stroke-width:2; stroke-opacity:0.1; fill:none" points="
  1434.32,65.3348 2352.76,65.3348 
  "/>
<polyline clip-path="url(#clip900)" style="stroke:#000000; stroke-linecap:butt; stroke-linejoin:round; stroke-width:4; stroke-opacity:1; fill:none" points="
  1434.32,686.448 1434.32,47.2441 
  "/>
<polyline clip-path="url(#clip900)" style="stroke:#000000; stroke-linecap:butt; stroke-linejoin:round; stroke-width:4; stroke-opacity:1; fill:none" points="
  1434.32,668.357 1453.22,668.357 
  "/>
<polyline clip-path="url(#clip900)" style="stroke:#000000; stroke-linecap:butt; stroke-linejoin:round; stroke-width:4; stroke-opacity:1; fill:none" points="
  1434.32,517.602 1453.22,517.602 
  "/>
<polyline clip-path="url(#clip900)" style="stroke:#000000; stroke-linecap:butt; stroke-linejoin:round; stroke-width:4; stroke-opacity:1; fill:none" points="
  1434.32,366.846 1453.22,366.846 
  "/>
<polyline clip-path="url(#clip900)" style="stroke:#000000; stroke-linecap:butt; stroke-linejoin:round; stroke-width:4; stroke-opacity:1; fill:none" points="
  1434.32,216.09 1453.22,216.09 
  "/>
<polyline clip-path="url(#clip900)" style="stroke:#000000; stroke-linecap:butt; stroke-linejoin:round; stroke-width:4; stroke-opacity:1; fill:none" points="
  1434.32,65.3348 1453.22,65.3348 
  "/>
<path clip-path="url(#clip900)" d="M1386.37 654.156 Q1382.76 654.156 1380.93 657.721 Q1379.13 661.262 1379.13 668.392 Q1379.13 675.498 1380.93 679.063 Q1382.76 682.605 1386.37 682.605 Q1390.01 682.605 1391.81 679.063 Q1393.64 675.498 1393.64 668.392 Q1393.64 661.262 1391.81 657.721 Q1390.01 654.156 1386.37 654.156 M1386.37 650.452 Q1392.18 650.452 1395.24 655.059 Q1398.32 659.642 1398.32 668.392 Q1398.32 677.119 1395.24 681.725 Q1392.18 686.308 1386.37 686.308 Q1380.56 686.308 1377.48 681.725 Q1374.43 677.119 1374.43 668.392 Q1374.43 659.642 1377.48 655.059 Q1380.56 650.452 1386.37 650.452 Z" fill="#000000" fill-rule="evenodd" fill-opacity="1" /><path clip-path="url(#clip900)" d="M1351.23 530.946 L1367.55 530.946 L1367.55 534.882 L1345.61 534.882 L1345.61 530.946 Q1348.27 528.192 1352.86 523.562 Q1357.46 518.909 1358.64 517.567 Q1360.89 515.044 1361.77 513.308 Q1362.67 511.548 1362.67 509.859 Q1362.67 507.104 1360.73 505.368 Q1358.8 503.632 1355.7 503.632 Q1353.5 503.632 1351.05 504.396 Q1348.62 505.16 1345.84 506.71 L1345.84 501.988 Q1348.67 500.854 1351.12 500.275 Q1353.57 499.697 1355.61 499.697 Q1360.98 499.697 1364.17 502.382 Q1367.37 505.067 1367.37 509.558 Q1367.37 511.687 1366.56 513.609 Q1365.77 515.507 1363.67 518.099 Q1363.09 518.771 1359.98 521.988 Q1356.88 525.183 1351.23 530.946 Z" fill="#000000" fill-rule="evenodd" fill-opacity="1" /><path clip-path="url(#clip900)" d="M1377.42 500.322 L1395.77 500.322 L1395.77 504.257 L1381.7 504.257 L1381.7 512.729 Q1382.72 512.382 1383.73 512.22 Q1384.75 512.034 1385.77 512.034 Q1391.56 512.034 1394.94 515.206 Q1398.32 518.377 1398.32 523.794 Q1398.32 529.372 1394.85 532.474 Q1391.37 535.553 1385.05 535.553 Q1382.88 535.553 1380.61 535.183 Q1378.36 534.812 1375.96 534.071 L1375.96 529.372 Q1378.04 530.507 1380.26 531.062 Q1382.48 531.618 1384.96 531.618 Q1388.97 531.618 1391.3 529.511 Q1393.64 527.405 1393.64 523.794 Q1393.64 520.183 1391.3 518.076 Q1388.97 515.97 1384.96 515.97 Q1383.09 515.97 1381.21 516.386 Q1379.36 516.803 1377.42 517.683 L1377.42 500.322 Z" fill="#000000" fill-rule="evenodd" fill-opacity="1" /><path clip-path="url(#clip900)" d="M1346.26 349.566 L1364.61 349.566 L1364.61 353.501 L1350.54 353.501 L1350.54 361.973 Q1351.56 361.626 1352.58 361.464 Q1353.6 361.279 1354.61 361.279 Q1360.4 361.279 1363.78 364.45 Q1367.16 367.621 1367.16 373.038 Q1367.16 378.617 1363.69 381.719 Q1360.22 384.797 1353.9 384.797 Q1351.72 384.797 1349.45 384.427 Q1347.21 384.057 1344.8 383.316 L1344.8 378.617 Q1346.88 379.751 1349.11 380.307 Q1351.33 380.862 1353.8 380.862 Q1357.81 380.862 1360.15 378.756 Q1362.48 376.649 1362.48 373.038 Q1362.48 369.427 1360.15 367.321 Q1357.81 365.214 1353.8 365.214 Q1351.93 365.214 1350.05 365.631 Q1348.2 366.047 1346.26 366.927 L1346.26 349.566 Z" fill="#000000" fill-rule="evenodd" fill-opacity="1" /><path clip-path="url(#clip900)" d="M1386.37 352.645 Q1382.76 352.645 1380.93 356.209 Q1379.13 359.751 1379.13 366.881 Q1379.13 373.987 1380.93 377.552 Q1382.76 381.094 1386.37 381.094 Q1390.01 381.094 1391.81 377.552 Q1393.64 373.987 1393.64 366.881 Q1393.64 359.751 1391.81 356.209 Q1390.01 352.645 1386.37 352.645 M1386.37 348.941 Q1392.18 348.941 1395.24 353.547 Q1398.32 358.131 1398.32 366.881 Q1398.32 375.608 1395.24 380.214 Q1392.18 384.797 1386.37 384.797 Q1380.56 384.797 1377.48 380.214 Q1374.43 375.608 1374.43 366.881 Q1374.43 358.131 1377.48 353.547 Q1380.56 348.941 1386.37 348.941 Z" fill="#000000" fill-rule="evenodd" fill-opacity="1" /><path clip-path="url(#clip900)" d="M1346.03 198.81 L1368.25 198.81 L1368.25 200.801 L1355.7 233.37 L1350.82 233.37 L1362.62 202.746 L1346.03 202.746 L1346.03 198.81 Z" fill="#000000" fill-rule="evenodd" fill-opacity="1" /><path clip-path="url(#clip900)" d="M1377.42 198.81 L1395.77 198.81 L1395.77 202.746 L1381.7 202.746 L1381.7 211.218 Q1382.72 210.87 1383.73 210.708 Q1384.75 210.523 1385.77 210.523 Q1391.56 210.523 1394.94 213.695 Q1398.32 216.866 1398.32 222.282 Q1398.32 227.861 1394.85 230.963 Q1391.37 234.042 1385.05 234.042 Q1382.88 234.042 1380.61 233.671 Q1378.36 233.301 1375.96 232.56 L1375.96 227.861 Q1378.04 228.995 1380.26 229.551 Q1382.48 230.107 1384.96 230.107 Q1388.97 230.107 1391.3 228 Q1393.64 225.894 1393.64 222.282 Q1393.64 218.671 1391.3 216.565 Q1388.97 214.458 1384.96 214.458 Q1383.09 214.458 1381.21 214.875 Q1379.36 215.292 1377.42 216.171 L1377.42 198.81 Z" fill="#000000" fill-rule="evenodd" fill-opacity="1" /><path clip-path="url(#clip900)" d="M1316.86 78.6796 L1324.5 78.6796 L1324.5 52.314 L1316.19 53.9807 L1316.19 49.7214 L1324.45 48.0548 L1329.13 48.0548 L1329.13 78.6796 L1336.77 78.6796 L1336.77 82.6148 L1316.86 82.6148 L1316.86 78.6796 Z" fill="#000000" fill-rule="evenodd" fill-opacity="1" /><path clip-path="url(#clip900)" d="M1356.21 51.1335 Q1352.6 51.1335 1350.77 54.6983 Q1348.97 58.2399 1348.97 65.3695 Q1348.97 72.4759 1350.77 76.0407 Q1352.6 79.5824 1356.21 79.5824 Q1359.85 79.5824 1361.65 76.0407 Q1363.48 72.4759 1363.48 65.3695 Q1363.48 58.2399 1361.65 54.6983 Q1359.85 51.1335 1356.21 51.1335 M1356.21 47.4298 Q1362.02 47.4298 1365.08 52.0362 Q1368.16 56.6195 1368.16 65.3695 Q1368.16 74.0963 1365.08 78.7028 Q1362.02 83.2861 1356.21 83.2861 Q1350.4 83.2861 1347.32 78.7028 Q1344.27 74.0963 1344.27 65.3695 Q1344.27 56.6195 1347.32 52.0362 Q1350.4 47.4298 1356.21 47.4298 Z" fill="#000000" fill-rule="evenodd" fill-opacity="1" /><path clip-path="url(#clip900)" d="M1386.37 51.1335 Q1382.76 51.1335 1380.93 54.6983 Q1379.13 58.2399 1379.13 65.3695 Q1379.13 72.4759 1380.93 76.0407 Q1382.76 79.5824 1386.37 79.5824 Q1390.01 79.5824 1391.81 76.0407 Q1393.64 72.4759 1393.64 65.3695 Q1393.64 58.2399 1391.81 54.6983 Q1390.01 51.1335 1386.37 51.1335 M1386.37 47.4298 Q1392.18 47.4298 1395.24 52.0362 Q1398.32 56.6195 1398.32 65.3695 Q1398.32 74.0963 1395.24 78.7028 Q1392.18 83.2861 1386.37 83.2861 Q1380.56 83.2861 1377.48 78.7028 Q1374.43 74.0963 1374.43 65.3695 Q1374.43 56.6195 1377.48 52.0362 Q1380.56 47.4298 1386.37 47.4298 Z" fill="#000000" fill-rule="evenodd" fill-opacity="1" /><polyline clip-path="url(#clip903)" style="stroke:#009af9; stroke-linecap:butt; stroke-linejoin:round; stroke-width:4; stroke-opacity:1; fill:none" points="
  1460.31,65.3348 1503.63,179.909 1546.96,282.423 1590.28,372.876 1633.6,451.269 1676.92,517.602 1720.25,571.874 1763.57,614.085 1806.89,644.236 1850.21,662.327 
  1893.54,668.357 1936.86,662.327 1980.18,644.236 2023.5,614.085 2066.83,571.874 2110.15,517.602 2153.47,451.269 2196.79,372.876 2240.12,282.423 2283.44,179.909 
  2326.76,65.3348 
  "/>
<path clip-path="url(#clip900)" d="
M239.19 1486.45 L1157.63 1486.45 L1157.63 847.244 L239.19 847.244  Z
  " fill="#ffffff" fill-rule="evenodd" fill-opacity="1"/>
<defs>
  <clipPath id="clip904">
    <rect x="239" y="847" width="919" height="640"/>
  </clipPath>
</defs>
<polyline clip-path="url(#clip904)" style="stroke:#000000; stroke-linecap:butt; stroke-linejoin:round; stroke-width:2; stroke-opacity:0.1; fill:none" points="
  265.184,1486.45 265.184,847.244 
  "/>
<polyline clip-path="url(#clip904)" style="stroke:#000000; stroke-linecap:butt; stroke-linejoin:round; stroke-width:2; stroke-opacity:0.1; fill:none" points="
  481.797,1486.45 481.797,847.244 
  "/>
<polyline clip-path="url(#clip904)" style="stroke:#000000; stroke-linecap:butt; stroke-linejoin:round; stroke-width:2; stroke-opacity:0.1; fill:none" points="
  698.409,1486.45 698.409,847.244 
  "/>
<polyline clip-path="url(#clip904)" style="stroke:#000000; stroke-linecap:butt; stroke-linejoin:round; stroke-width:2; stroke-opacity:0.1; fill:none" points="
  915.022,1486.45 915.022,847.244 
  "/>
<polyline clip-path="url(#clip904)" style="stroke:#000000; stroke-linecap:butt; stroke-linejoin:round; stroke-width:2; stroke-opacity:0.1; fill:none" points="
  1131.64,1486.45 1131.64,847.244 
  "/>
<polyline clip-path="url(#clip900)" style="stroke:#000000; stroke-linecap:butt; stroke-linejoin:round; stroke-width:4; stroke-opacity:1; fill:none" points="
  239.19,1486.45 1157.63,1486.45 
  "/>
<polyline clip-path="url(#clip900)" style="stroke:#000000; stroke-linecap:butt; stroke-linejoin:round; stroke-width:4; stroke-opacity:1; fill:none" points="
  265.184,1486.45 265.184,1467.55 
  "/>
<polyline clip-path="url(#clip900)" style="stroke:#000000; stroke-linecap:butt; stroke-linejoin:round; stroke-width:4; stroke-opacity:1; fill:none" points="
  481.797,1486.45 481.797,1467.55 
  "/>
<polyline clip-path="url(#clip900)" style="stroke:#000000; stroke-linecap:butt; stroke-linejoin:round; stroke-width:4; stroke-opacity:1; fill:none" points="
  698.409,1486.45 698.409,1467.55 
  "/>
<polyline clip-path="url(#clip900)" style="stroke:#000000; stroke-linecap:butt; stroke-linejoin:round; stroke-width:4; stroke-opacity:1; fill:none" points="
  915.022,1486.45 915.022,1467.55 
  "/>
<polyline clip-path="url(#clip900)" style="stroke:#000000; stroke-linecap:butt; stroke-linejoin:round; stroke-width:4; stroke-opacity:1; fill:none" points="
  1131.64,1486.45 1131.64,1467.55 
  "/>
<path clip-path="url(#clip900)" d="M219.247 1532.02 L248.922 1532.02 L248.922 1535.95 L219.247 1535.95 L219.247 1532.02 Z" fill="#000000" fill-rule="evenodd" fill-opacity="1" /><path clip-path="url(#clip900)" d="M259.825 1544.91 L267.464 1544.91 L267.464 1518.55 L259.154 1520.21 L259.154 1515.95 L267.418 1514.29 L272.094 1514.29 L272.094 1544.91 L279.732 1544.91 L279.732 1548.85 L259.825 1548.85 L259.825 1544.91 Z" fill="#000000" fill-rule="evenodd" fill-opacity="1" /><path clip-path="url(#clip900)" d="M299.177 1517.37 Q295.566 1517.37 293.737 1520.93 Q291.931 1524.47 291.931 1531.6 Q291.931 1538.71 293.737 1542.27 Q295.566 1545.82 299.177 1545.82 Q302.811 1545.82 304.617 1542.27 Q306.445 1538.71 306.445 1531.6 Q306.445 1524.47 304.617 1520.93 Q302.811 1517.37 299.177 1517.37 M299.177 1513.66 Q304.987 1513.66 308.042 1518.27 Q311.121 1522.85 311.121 1531.6 Q311.121 1540.33 308.042 1544.94 Q304.987 1549.52 299.177 1549.52 Q293.367 1549.52 290.288 1544.94 Q287.232 1540.33 287.232 1531.6 Q287.232 1522.85 290.288 1518.27 Q293.367 1513.66 299.177 1513.66 Z" fill="#000000" fill-rule="evenodd" fill-opacity="1" /><path clip-path="url(#clip900)" d="M451.438 1532.02 L481.114 1532.02 L481.114 1535.95 L451.438 1535.95 L451.438 1532.02 Z" fill="#000000" fill-rule="evenodd" fill-opacity="1" /><path clip-path="url(#clip900)" d="M491.253 1514.29 L509.609 1514.29 L509.609 1518.22 L495.535 1518.22 L495.535 1526.7 Q496.554 1526.35 497.572 1526.19 Q498.591 1526 499.609 1526 Q505.396 1526 508.776 1529.17 Q512.155 1532.34 512.155 1537.76 Q512.155 1543.34 508.683 1546.44 Q505.211 1549.52 498.892 1549.52 Q496.716 1549.52 494.447 1549.15 Q492.202 1548.78 489.794 1548.04 L489.794 1543.34 Q491.878 1544.47 494.1 1545.03 Q496.322 1545.58 498.799 1545.58 Q502.804 1545.58 505.141 1543.48 Q507.479 1541.37 507.479 1537.76 Q507.479 1534.15 505.141 1532.04 Q502.804 1529.94 498.799 1529.94 Q496.924 1529.94 495.049 1530.35 Q493.197 1530.77 491.253 1531.65 L491.253 1514.29 Z" fill="#000000" fill-rule="evenodd" fill-opacity="1" /><path clip-path="url(#clip900)" d="M698.409 1517.37 Q694.798 1517.37 692.97 1520.93 Q691.164 1524.47 691.164 1531.6 Q691.164 1538.71 692.97 1542.27 Q694.798 1545.82 698.409 1545.82 Q702.044 1545.82 703.849 1542.27 Q705.678 1538.71 705.678 1531.6 Q705.678 1524.47 703.849 1520.93 Q702.044 1517.37 698.409 1517.37 M698.409 1513.66 Q704.22 1513.66 707.275 1518.27 Q710.354 1522.85 710.354 1531.6 Q710.354 1540.33 707.275 1544.94 Q704.22 1549.52 698.409 1549.52 Q692.599 1549.52 689.521 1544.94 Q686.465 1540.33 686.465 1531.6 Q686.465 1522.85 689.521 1518.27 Q692.599 1513.66 698.409 1513.66 Z" fill="#000000" fill-rule="evenodd" fill-opacity="1" /><path clip-path="url(#clip900)" d="M905.3 1514.29 L923.656 1514.29 L923.656 1518.22 L909.582 1518.22 L909.582 1526.7 Q910.601 1526.35 911.619 1526.19 Q912.638 1526 913.657 1526 Q919.444 1526 922.823 1529.17 Q926.203 1532.34 926.203 1537.76 Q926.203 1543.34 922.731 1546.44 Q919.258 1549.52 912.939 1549.52 Q910.763 1549.52 908.495 1549.15 Q906.249 1548.78 903.842 1548.04 L903.842 1543.34 Q905.925 1544.47 908.147 1545.03 Q910.37 1545.58 912.846 1545.58 Q916.851 1545.58 919.189 1543.48 Q921.527 1541.37 921.527 1537.76 Q921.527 1534.15 919.189 1532.04 Q916.851 1529.94 912.846 1529.94 Q910.971 1529.94 909.096 1530.35 Q907.245 1530.77 905.3 1531.65 L905.3 1514.29 Z" fill="#000000" fill-rule="evenodd" fill-opacity="1" /><path clip-path="url(#clip900)" d="M1106.32 1544.91 L1113.96 1544.91 L1113.96 1518.55 L1105.65 1520.21 L1105.65 1515.95 L1113.92 1514.29 L1118.59 1514.29 L1118.59 1544.91 L1126.23 1544.91 L1126.23 1548.85 L1106.32 1548.85 L1106.32 1544.91 Z" fill="#000000" fill-rule="evenodd" fill-opacity="1" /><path clip-path="url(#clip900)" d="M1145.67 1517.37 Q1142.06 1517.37 1140.23 1520.93 Q1138.43 1524.47 1138.43 1531.6 Q1138.43 1538.71 1140.23 1542.27 Q1142.06 1545.82 1145.67 1545.82 Q1149.31 1545.82 1151.11 1542.27 Q1152.94 1538.71 1152.94 1531.6 Q1152.94 1524.47 1151.11 1520.93 Q1149.31 1517.37 1145.67 1517.37 M1145.67 1513.66 Q1151.48 1513.66 1154.54 1518.27 Q1157.62 1522.85 1157.62 1531.6 Q1157.62 1540.33 1154.54 1544.94 Q1151.48 1549.52 1145.67 1549.52 Q1139.86 1549.52 1136.79 1544.94 Q1133.73 1540.33 1133.73 1531.6 Q1133.73 1522.85 1136.79 1518.27 Q1139.86 1513.66 1145.67 1513.66 Z" fill="#000000" fill-rule="evenodd" fill-opacity="1" /><polyline clip-path="url(#clip904)" style="stroke:#000000; stroke-linecap:butt; stroke-linejoin:round; stroke-width:2; stroke-opacity:0.1; fill:none" points="
  239.19,1468.36 1157.63,1468.36 
  "/>
<polyline clip-path="url(#clip904)" style="stroke:#000000; stroke-linecap:butt; stroke-linejoin:round; stroke-width:2; stroke-opacity:0.1; fill:none" points="
  239.19,1317.6 1157.63,1317.6 
  "/>
<polyline clip-path="url(#clip904)" style="stroke:#000000; stroke-linecap:butt; stroke-linejoin:round; stroke-width:2; stroke-opacity:0.1; fill:none" points="
  239.19,1166.85 1157.63,1166.85 
  "/>
<polyline clip-path="url(#clip904)" style="stroke:#000000; stroke-linecap:butt; stroke-linejoin:round; stroke-width:2; stroke-opacity:0.1; fill:none" points="
  239.19,1016.09 1157.63,1016.09 
  "/>
<polyline clip-path="url(#clip904)" style="stroke:#000000; stroke-linecap:butt; stroke-linejoin:round; stroke-width:2; stroke-opacity:0.1; fill:none" points="
  239.19,865.335 1157.63,865.335 
  "/>
<polyline clip-path="url(#clip900)" style="stroke:#000000; stroke-linecap:butt; stroke-linejoin:round; stroke-width:4; stroke-opacity:1; fill:none" points="
  239.19,1486.45 239.19,847.244 
  "/>
<polyline clip-path="url(#clip900)" style="stroke:#000000; stroke-linecap:butt; stroke-linejoin:round; stroke-width:4; stroke-opacity:1; fill:none" points="
  239.19,1468.36 258.088,1468.36 
  "/>
<polyline clip-path="url(#clip900)" style="stroke:#000000; stroke-linecap:butt; stroke-linejoin:round; stroke-width:4; stroke-opacity:1; fill:none" points="
  239.19,1317.6 258.088,1317.6 
  "/>
<polyline clip-path="url(#clip900)" style="stroke:#000000; stroke-linecap:butt; stroke-linejoin:round; stroke-width:4; stroke-opacity:1; fill:none" points="
  239.19,1166.85 258.088,1166.85 
  "/>
<polyline clip-path="url(#clip900)" style="stroke:#000000; stroke-linecap:butt; stroke-linejoin:round; stroke-width:4; stroke-opacity:1; fill:none" points="
  239.19,1016.09 258.088,1016.09 
  "/>
<polyline clip-path="url(#clip900)" style="stroke:#000000; stroke-linecap:butt; stroke-linejoin:round; stroke-width:4; stroke-opacity:1; fill:none" points="
  239.19,865.335 258.088,865.335 
  "/>
<path clip-path="url(#clip900)" d="M50.9921 1468.81 L80.6679 1468.81 L80.6679 1472.74 L50.9921 1472.74 L50.9921 1468.81 Z" fill="#000000" fill-rule="evenodd" fill-opacity="1" /><path clip-path="url(#clip900)" d="M91.5706 1481.7 L99.2095 1481.7 L99.2095 1455.34 L90.8993 1457 L90.8993 1452.74 L99.1632 1451.08 L103.839 1451.08 L103.839 1481.7 L111.478 1481.7 L111.478 1485.64 L91.5706 1485.64 L91.5706 1481.7 Z" fill="#000000" fill-rule="evenodd" fill-opacity="1" /><path clip-path="url(#clip900)" d="M130.922 1454.16 Q127.311 1454.16 125.482 1457.72 Q123.677 1461.26 123.677 1468.39 Q123.677 1475.5 125.482 1479.06 Q127.311 1482.6 130.922 1482.6 Q134.556 1482.6 136.362 1479.06 Q138.191 1475.5 138.191 1468.39 Q138.191 1461.26 136.362 1457.72 Q134.556 1454.16 130.922 1454.16 M130.922 1450.45 Q136.732 1450.45 139.788 1455.06 Q142.867 1459.64 142.867 1468.39 Q142.867 1477.12 139.788 1481.73 Q136.732 1486.31 130.922 1486.31 Q125.112 1486.31 122.033 1481.73 Q118.978 1477.12 118.978 1468.39 Q118.978 1459.64 122.033 1455.06 Q125.112 1450.45 130.922 1450.45 Z" fill="#000000" fill-rule="evenodd" fill-opacity="1" /><path clip-path="url(#clip900)" d="M161.084 1454.16 Q157.473 1454.16 155.644 1457.72 Q153.839 1461.26 153.839 1468.39 Q153.839 1475.5 155.644 1479.06 Q157.473 1482.6 161.084 1482.6 Q164.718 1482.6 166.524 1479.06 Q168.353 1475.5 168.353 1468.39 Q168.353 1461.26 166.524 1457.72 Q164.718 1454.16 161.084 1454.16 M161.084 1450.45 Q166.894 1450.45 169.95 1455.06 Q173.029 1459.64 173.029 1468.39 Q173.029 1477.12 169.95 1481.73 Q166.894 1486.31 161.084 1486.31 Q155.274 1486.31 152.195 1481.73 Q149.14 1477.12 149.14 1468.39 Q149.14 1459.64 152.195 1455.06 Q155.274 1450.45 161.084 1450.45 Z" fill="#000000" fill-rule="evenodd" fill-opacity="1" /><path clip-path="url(#clip900)" d="M191.246 1454.16 Q187.635 1454.16 185.806 1457.72 Q184.001 1461.26 184.001 1468.39 Q184.001 1475.5 185.806 1479.06 Q187.635 1482.6 191.246 1482.6 Q194.88 1482.6 196.686 1479.06 Q198.514 1475.5 198.514 1468.39 Q198.514 1461.26 196.686 1457.72 Q194.88 1454.16 191.246 1454.16 M191.246 1450.45 Q197.056 1450.45 200.112 1455.06 Q203.19 1459.64 203.19 1468.39 Q203.19 1477.12 200.112 1481.73 Q197.056 1486.31 191.246 1486.31 Q185.436 1486.31 182.357 1481.73 Q179.302 1477.12 179.302 1468.39 Q179.302 1459.64 182.357 1455.06 Q185.436 1450.45 191.246 1450.45 Z" fill="#000000" fill-rule="evenodd" fill-opacity="1" /><path clip-path="url(#clip900)" d="M81.154 1318.05 L110.83 1318.05 L110.83 1321.99 L81.154 1321.99 L81.154 1318.05 Z" fill="#000000" fill-rule="evenodd" fill-opacity="1" /><path clip-path="url(#clip900)" d="M120.969 1300.32 L139.325 1300.32 L139.325 1304.26 L125.251 1304.26 L125.251 1312.73 Q126.27 1312.38 127.288 1312.22 Q128.307 1312.03 129.325 1312.03 Q135.112 1312.03 138.492 1315.21 Q141.871 1318.38 141.871 1323.79 Q141.871 1329.37 138.399 1332.47 Q134.927 1335.55 128.607 1335.55 Q126.432 1335.55 124.163 1335.18 Q121.918 1334.81 119.51 1334.07 L119.51 1329.37 Q121.594 1330.51 123.816 1331.06 Q126.038 1331.62 128.515 1331.62 Q132.519 1331.62 134.857 1329.51 Q137.195 1327.4 137.195 1323.79 Q137.195 1320.18 134.857 1318.08 Q132.519 1315.97 128.515 1315.97 Q126.64 1315.97 124.765 1316.39 Q122.913 1316.8 120.969 1317.68 L120.969 1300.32 Z" fill="#000000" fill-rule="evenodd" fill-opacity="1" /><path clip-path="url(#clip900)" d="M161.084 1303.4 Q157.473 1303.4 155.644 1306.97 Q153.839 1310.51 153.839 1317.64 Q153.839 1324.74 155.644 1328.31 Q157.473 1331.85 161.084 1331.85 Q164.718 1331.85 166.524 1328.31 Q168.353 1324.74 168.353 1317.64 Q168.353 1310.51 166.524 1306.97 Q164.718 1303.4 161.084 1303.4 M161.084 1299.7 Q166.894 1299.7 169.95 1304.3 Q173.029 1308.89 173.029 1317.64 Q173.029 1326.36 169.95 1330.97 Q166.894 1335.55 161.084 1335.55 Q155.274 1335.55 152.195 1330.97 Q149.14 1326.36 149.14 1317.64 Q149.14 1308.89 152.195 1304.3 Q155.274 1299.7 161.084 1299.7 Z" fill="#000000" fill-rule="evenodd" fill-opacity="1" /><path clip-path="url(#clip900)" d="M191.246 1303.4 Q187.635 1303.4 185.806 1306.97 Q184.001 1310.51 184.001 1317.64 Q184.001 1324.74 185.806 1328.31 Q187.635 1331.85 191.246 1331.85 Q194.88 1331.85 196.686 1328.31 Q198.514 1324.74 198.514 1317.64 Q198.514 1310.51 196.686 1306.97 Q194.88 1303.4 191.246 1303.4 M191.246 1299.7 Q197.056 1299.7 200.112 1304.3 Q203.19 1308.89 203.19 1317.64 Q203.19 1326.36 200.112 1330.97 Q197.056 1335.55 191.246 1335.55 Q185.436 1335.55 182.357 1330.97 Q179.302 1326.36 179.302 1317.64 Q179.302 1308.89 182.357 1304.3 Q185.436 1299.7 191.246 1299.7 Z" fill="#000000" fill-rule="evenodd" fill-opacity="1" /><path clip-path="url(#clip900)" d="M191.246 1152.64 Q187.635 1152.64 185.806 1156.21 Q184.001 1159.75 184.001 1166.88 Q184.001 1173.99 185.806 1177.55 Q187.635 1181.09 191.246 1181.09 Q194.88 1181.09 196.686 1177.55 Q198.514 1173.99 198.514 1166.88 Q198.514 1159.75 196.686 1156.21 Q194.88 1152.64 191.246 1152.64 M191.246 1148.94 Q197.056 1148.94 200.112 1153.55 Q203.19 1158.13 203.19 1166.88 Q203.19 1175.61 200.112 1180.21 Q197.056 1184.8 191.246 1184.8 Q185.436 1184.8 182.357 1180.21 Q179.302 1175.61 179.302 1166.88 Q179.302 1158.13 182.357 1153.55 Q185.436 1148.94 191.246 1148.94 Z" fill="#000000" fill-rule="evenodd" fill-opacity="1" /><path clip-path="url(#clip900)" d="M120.969 998.81 L139.325 998.81 L139.325 1002.75 L125.251 1002.75 L125.251 1011.22 Q126.27 1010.87 127.288 1010.71 Q128.307 1010.52 129.325 1010.52 Q135.112 1010.52 138.492 1013.69 Q141.871 1016.87 141.871 1022.28 Q141.871 1027.86 138.399 1030.96 Q134.927 1034.04 128.607 1034.04 Q126.432 1034.04 124.163 1033.67 Q121.918 1033.3 119.51 1032.56 L119.51 1027.86 Q121.594 1029 123.816 1029.55 Q126.038 1030.11 128.515 1030.11 Q132.519 1030.11 134.857 1028 Q137.195 1025.89 137.195 1022.28 Q137.195 1018.67 134.857 1016.56 Q132.519 1014.46 128.515 1014.46 Q126.64 1014.46 124.765 1014.88 Q122.913 1015.29 120.969 1016.17 L120.969 998.81 Z" fill="#000000" fill-rule="evenodd" fill-opacity="1" /><path clip-path="url(#clip900)" d="M161.084 1001.89 Q157.473 1001.89 155.644 1005.45 Q153.839 1009 153.839 1016.13 Q153.839 1023.23 155.644 1026.8 Q157.473 1030.34 161.084 1030.34 Q164.718 1030.34 166.524 1026.8 Q168.353 1023.23 168.353 1016.13 Q168.353 1009 166.524 1005.45 Q164.718 1001.89 161.084 1001.89 M161.084 998.185 Q166.894 998.185 169.95 1002.79 Q173.029 1007.38 173.029 1016.13 Q173.029 1024.85 169.95 1029.46 Q166.894 1034.04 161.084 1034.04 Q155.274 1034.04 152.195 1029.46 Q149.14 1024.85 149.14 1016.13 Q149.14 1007.38 152.195 1002.79 Q155.274 998.185 161.084 998.185 Z" fill="#000000" fill-rule="evenodd" fill-opacity="1" /><path clip-path="url(#clip900)" d="M191.246 1001.89 Q187.635 1001.89 185.806 1005.45 Q184.001 1009 184.001 1016.13 Q184.001 1023.23 185.806 1026.8 Q187.635 1030.34 191.246 1030.34 Q194.88 1030.34 196.686 1026.8 Q198.514 1023.23 198.514 1016.13 Q198.514 1009 196.686 1005.45 Q194.88 1001.89 191.246 1001.89 M191.246 998.185 Q197.056 998.185 200.112 1002.79 Q203.19 1007.38 203.19 1016.13 Q203.19 1024.85 200.112 1029.46 Q197.056 1034.04 191.246 1034.04 Q185.436 1034.04 182.357 1029.46 Q179.302 1024.85 179.302 1016.13 Q179.302 1007.38 182.357 1002.79 Q185.436 998.185 191.246 998.185 Z" fill="#000000" fill-rule="evenodd" fill-opacity="1" /><path clip-path="url(#clip900)" d="M91.5706 878.68 L99.2095 878.68 L99.2095 852.314 L90.8993 853.981 L90.8993 849.721 L99.1632 848.055 L103.839 848.055 L103.839 878.68 L111.478 878.68 L111.478 882.615 L91.5706 882.615 L91.5706 878.68 Z" fill="#000000" fill-rule="evenodd" fill-opacity="1" /><path clip-path="url(#clip900)" d="M130.922 851.133 Q127.311 851.133 125.482 854.698 Q123.677 858.24 123.677 865.369 Q123.677 872.476 125.482 876.041 Q127.311 879.582 130.922 879.582 Q134.556 879.582 136.362 876.041 Q138.191 872.476 138.191 865.369 Q138.191 858.24 136.362 854.698 Q134.556 851.133 130.922 851.133 M130.922 847.43 Q136.732 847.43 139.788 852.036 Q142.867 856.62 142.867 865.369 Q142.867 874.096 139.788 878.703 Q136.732 883.286 130.922 883.286 Q125.112 883.286 122.033 878.703 Q118.978 874.096 118.978 865.369 Q118.978 856.62 122.033 852.036 Q125.112 847.43 130.922 847.43 Z" fill="#000000" fill-rule="evenodd" fill-opacity="1" /><path clip-path="url(#clip900)" d="M161.084 851.133 Q157.473 851.133 155.644 854.698 Q153.839 858.24 153.839 865.369 Q153.839 872.476 155.644 876.041 Q157.473 879.582 161.084 879.582 Q164.718 879.582 166.524 876.041 Q168.353 872.476 168.353 865.369 Q168.353 858.24 166.524 854.698 Q164.718 851.133 161.084 851.133 M161.084 847.43 Q166.894 847.43 169.95 852.036 Q173.029 856.62 173.029 865.369 Q173.029 874.096 169.95 878.703 Q166.894 883.286 161.084 883.286 Q155.274 883.286 152.195 878.703 Q149.14 874.096 149.14 865.369 Q149.14 856.62 152.195 852.036 Q155.274 847.43 161.084 847.43 Z" fill="#000000" fill-rule="evenodd" fill-opacity="1" /><path clip-path="url(#clip900)" d="M191.246 851.133 Q187.635 851.133 185.806 854.698 Q184.001 858.24 184.001 865.369 Q184.001 872.476 185.806 876.041 Q187.635 879.582 191.246 879.582 Q194.88 879.582 196.686 876.041 Q198.514 872.476 198.514 865.369 Q198.514 858.24 196.686 854.698 Q194.88 851.133 191.246 851.133 M191.246 847.43 Q197.056 847.43 200.112 852.036 Q203.19 856.62 203.19 865.369 Q203.19 874.096 200.112 878.703 Q197.056 883.286 191.246 883.286 Q185.436 883.286 182.357 878.703 Q179.302 874.096 179.302 865.369 Q179.302 856.62 182.357 852.036 Q185.436 847.43 191.246 847.43 Z" fill="#000000" fill-rule="evenodd" fill-opacity="1" /><polyline clip-path="url(#clip904)" style="stroke:#009af9; stroke-linecap:butt; stroke-linejoin:round; stroke-width:4; stroke-opacity:1; fill:none" points="
  265.184,1468.36 308.506,1386.65 351.829,1321.22 395.152,1270.26 438.474,1231.97 481.797,1204.53 525.119,1186.14 568.442,1174.99 611.764,1169.26 655.087,1167.15 
  698.409,1166.85 741.732,1166.54 785.055,1164.43 828.377,1158.71 871.7,1147.55 915.022,1129.16 958.345,1101.72 1001.67,1063.43 1044.99,1012.47 1088.31,947.044 
  1131.64,865.335 
  "/>
<path clip-path="url(#clip900)" d="
M1434.32 1486.45 L2352.76 1486.45 L2352.76 847.244 L1434.32 847.244  Z
  " fill="#ffffff" fill-rule="evenodd" fill-opacity="1"/>
<defs>
  <clipPath id="clip905">
    <rect x="1434" y="847" width="919" height="640"/>
  </clipPath>
</defs>
<polyline clip-path="url(#clip905)" style="stroke:#000000; stroke-linecap:butt; stroke-linejoin:round; stroke-width:2; stroke-opacity:0.1; fill:none" points="
  1460.31,1486.45 1460.31,847.244 
  "/>
<polyline clip-path="url(#clip905)" style="stroke:#000000; stroke-linecap:butt; stroke-linejoin:round; stroke-width:2; stroke-opacity:0.1; fill:none" points="
  1676.92,1486.45 1676.92,847.244 
  "/>
<polyline clip-path="url(#clip905)" style="stroke:#000000; stroke-linecap:butt; stroke-linejoin:round; stroke-width:2; stroke-opacity:0.1; fill:none" points="
  1893.54,1486.45 1893.54,847.244 
  "/>
<polyline clip-path="url(#clip905)" style="stroke:#000000; stroke-linecap:butt; stroke-linejoin:round; stroke-width:2; stroke-opacity:0.1; fill:none" points="
  2110.15,1486.45 2110.15,847.244 
  "/>
<polyline clip-path="url(#clip905)" style="stroke:#000000; stroke-linecap:butt; stroke-linejoin:round; stroke-width:2; stroke-opacity:0.1; fill:none" points="
  2326.76,1486.45 2326.76,847.244 
  "/>
<polyline clip-path="url(#clip900)" style="stroke:#000000; stroke-linecap:butt; stroke-linejoin:round; stroke-width:4; stroke-opacity:1; fill:none" points="
  1434.32,1486.45 2352.76,1486.45 
  "/>
<polyline clip-path="url(#clip900)" style="stroke:#000000; stroke-linecap:butt; stroke-linejoin:round; stroke-width:4; stroke-opacity:1; fill:none" points="
  1460.31,1486.45 1460.31,1467.55 
  "/>
<polyline clip-path="url(#clip900)" style="stroke:#000000; stroke-linecap:butt; stroke-linejoin:round; stroke-width:4; stroke-opacity:1; fill:none" points="
  1676.92,1486.45 1676.92,1467.55 
  "/>
<polyline clip-path="url(#clip900)" style="stroke:#000000; stroke-linecap:butt; stroke-linejoin:round; stroke-width:4; stroke-opacity:1; fill:none" points="
  1893.54,1486.45 1893.54,1467.55 
  "/>
<polyline clip-path="url(#clip900)" style="stroke:#000000; stroke-linecap:butt; stroke-linejoin:round; stroke-width:4; stroke-opacity:1; fill:none" points="
  2110.15,1486.45 2110.15,1467.55 
  "/>
<polyline clip-path="url(#clip900)" style="stroke:#000000; stroke-linecap:butt; stroke-linejoin:round; stroke-width:4; stroke-opacity:1; fill:none" points="
  2326.76,1486.45 2326.76,1467.55 
  "/>
<path clip-path="url(#clip900)" d="M1414.37 1532.02 L1444.05 1532.02 L1444.05 1535.95 L1414.37 1535.95 L1414.37 1532.02 Z" fill="#000000" fill-rule="evenodd" fill-opacity="1" /><path clip-path="url(#clip900)" d="M1454.95 1544.91 L1462.59 1544.91 L1462.59 1518.55 L1454.28 1520.21 L1454.28 1515.95 L1462.55 1514.29 L1467.22 1514.29 L1467.22 1544.91 L1474.86 1544.91 L1474.86 1548.85 L1454.95 1548.85 L1454.95 1544.91 Z" fill="#000000" fill-rule="evenodd" fill-opacity="1" /><path clip-path="url(#clip900)" d="M1494.3 1517.37 Q1490.69 1517.37 1488.86 1520.93 Q1487.06 1524.47 1487.06 1531.6 Q1487.06 1538.71 1488.86 1542.27 Q1490.69 1545.82 1494.3 1545.82 Q1497.94 1545.82 1499.74 1542.27 Q1501.57 1538.71 1501.57 1531.6 Q1501.57 1524.47 1499.74 1520.93 Q1497.94 1517.37 1494.3 1517.37 M1494.3 1513.66 Q1500.11 1513.66 1503.17 1518.27 Q1506.25 1522.85 1506.25 1531.6 Q1506.25 1540.33 1503.17 1544.94 Q1500.11 1549.52 1494.3 1549.52 Q1488.49 1549.52 1485.42 1544.94 Q1482.36 1540.33 1482.36 1531.6 Q1482.36 1522.85 1485.42 1518.27 Q1488.49 1513.66 1494.3 1513.66 Z" fill="#000000" fill-rule="evenodd" fill-opacity="1" /><path clip-path="url(#clip900)" d="M1646.57 1532.02 L1676.24 1532.02 L1676.24 1535.95 L1646.57 1535.95 L1646.57 1532.02 Z" fill="#000000" fill-rule="evenodd" fill-opacity="1" /><path clip-path="url(#clip900)" d="M1686.38 1514.29 L1704.74 1514.29 L1704.74 1518.22 L1690.66 1518.22 L1690.66 1526.7 Q1691.68 1526.35 1692.7 1526.19 Q1693.72 1526 1694.74 1526 Q1700.52 1526 1703.9 1529.17 Q1707.28 1532.34 1707.28 1537.76 Q1707.28 1543.34 1703.81 1546.44 Q1700.34 1549.52 1694.02 1549.52 Q1691.84 1549.52 1689.57 1549.15 Q1687.33 1548.78 1684.92 1548.04 L1684.92 1543.34 Q1687.01 1544.47 1689.23 1545.03 Q1691.45 1545.58 1693.93 1545.58 Q1697.93 1545.58 1700.27 1543.48 Q1702.61 1541.37 1702.61 1537.76 Q1702.61 1534.15 1700.27 1532.04 Q1697.93 1529.94 1693.93 1529.94 Q1692.05 1529.94 1690.18 1530.35 Q1688.32 1530.77 1686.38 1531.65 L1686.38 1514.29 Z" fill="#000000" fill-rule="evenodd" fill-opacity="1" /><path clip-path="url(#clip900)" d="M1893.54 1517.37 Q1889.93 1517.37 1888.1 1520.93 Q1886.29 1524.47 1886.29 1531.6 Q1886.29 1538.71 1888.1 1542.27 Q1889.93 1545.82 1893.54 1545.82 Q1897.17 1545.82 1898.98 1542.27 Q1900.81 1538.71 1900.81 1531.6 Q1900.81 1524.47 1898.98 1520.93 Q1897.17 1517.37 1893.54 1517.37 M1893.54 1513.66 Q1899.35 1513.66 1902.4 1518.27 Q1905.48 1522.85 1905.48 1531.6 Q1905.48 1540.33 1902.4 1544.94 Q1899.35 1549.52 1893.54 1549.52 Q1887.73 1549.52 1884.65 1544.94 Q1881.59 1540.33 1881.59 1531.6 Q1881.59 1522.85 1884.65 1518.27 Q1887.73 1513.66 1893.54 1513.66 Z" fill="#000000" fill-rule="evenodd" fill-opacity="1" /><path clip-path="url(#clip900)" d="M2100.43 1514.29 L2118.78 1514.29 L2118.78 1518.22 L2104.71 1518.22 L2104.71 1526.7 Q2105.73 1526.35 2106.75 1526.19 Q2107.77 1526 2108.78 1526 Q2114.57 1526 2117.95 1529.17 Q2121.33 1532.34 2121.33 1537.76 Q2121.33 1543.34 2117.86 1546.44 Q2114.39 1549.52 2108.07 1549.52 Q2105.89 1549.52 2103.62 1549.15 Q2101.38 1548.78 2098.97 1548.04 L2098.97 1543.34 Q2101.05 1544.47 2103.27 1545.03 Q2105.5 1545.58 2107.97 1545.58 Q2111.98 1545.58 2114.32 1543.48 Q2116.65 1541.37 2116.65 1537.76 Q2116.65 1534.15 2114.32 1532.04 Q2111.98 1529.94 2107.97 1529.94 Q2106.1 1529.94 2104.22 1530.35 Q2102.37 1530.77 2100.43 1531.65 L2100.43 1514.29 Z" fill="#000000" fill-rule="evenodd" fill-opacity="1" /><path clip-path="url(#clip900)" d="M2301.45 1544.91 L2309.09 1544.91 L2309.09 1518.55 L2300.78 1520.21 L2300.78 1515.95 L2309.04 1514.29 L2313.72 1514.29 L2313.72 1544.91 L2321.36 1544.91 L2321.36 1548.85 L2301.45 1548.85 L2301.45 1544.91 Z" fill="#000000" fill-rule="evenodd" fill-opacity="1" /><path clip-path="url(#clip900)" d="M2340.8 1517.37 Q2337.19 1517.37 2335.36 1520.93 Q2333.56 1524.47 2333.56 1531.6 Q2333.56 1538.71 2335.36 1542.27 Q2337.19 1545.82 2340.8 1545.82 Q2344.44 1545.82 2346.24 1542.27 Q2348.07 1538.71 2348.07 1531.6 Q2348.07 1524.47 2346.24 1520.93 Q2344.44 1517.37 2340.8 1517.37 M2340.8 1513.66 Q2346.61 1513.66 2349.67 1518.27 Q2352.75 1522.85 2352.75 1531.6 Q2352.75 1540.33 2349.67 1544.94 Q2346.61 1549.52 2340.8 1549.52 Q2334.99 1549.52 2331.91 1544.94 Q2328.86 1540.33 2328.86 1531.6 Q2328.86 1522.85 2331.91 1518.27 Q2334.99 1513.66 2340.8 1513.66 Z" fill="#000000" fill-rule="evenodd" fill-opacity="1" /><polyline clip-path="url(#clip905)" style="stroke:#000000; stroke-linecap:butt; stroke-linejoin:round; stroke-width:2; stroke-opacity:0.1; fill:none" points="
  1434.32,1468.36 2352.76,1468.36 
  "/>
<polyline clip-path="url(#clip905)" style="stroke:#000000; stroke-linecap:butt; stroke-linejoin:round; stroke-width:2; stroke-opacity:0.1; fill:none" points="
  1434.32,1317.6 2352.76,1317.6 
  "/>
<polyline clip-path="url(#clip905)" style="stroke:#000000; stroke-linecap:butt; stroke-linejoin:round; stroke-width:2; stroke-opacity:0.1; fill:none" points="
  1434.32,1166.85 2352.76,1166.85 
  "/>
<polyline clip-path="url(#clip905)" style="stroke:#000000; stroke-linecap:butt; stroke-linejoin:round; stroke-width:2; stroke-opacity:0.1; fill:none" points="
  1434.32,1016.09 2352.76,1016.09 
  "/>
<polyline clip-path="url(#clip905)" style="stroke:#000000; stroke-linecap:butt; stroke-linejoin:round; stroke-width:2; stroke-opacity:0.1; fill:none" points="
  1434.32,865.335 2352.76,865.335 
  "/>
<polyline clip-path="url(#clip900)" style="stroke:#000000; stroke-linecap:butt; stroke-linejoin:round; stroke-width:4; stroke-opacity:1; fill:none" points="
  1434.32,1486.45 1434.32,847.244 
  "/>
<polyline clip-path="url(#clip900)" style="stroke:#000000; stroke-linecap:butt; stroke-linejoin:round; stroke-width:4; stroke-opacity:1; fill:none" points="
  1434.32,1468.36 1453.22,1468.36 
  "/>
<polyline clip-path="url(#clip900)" style="stroke:#000000; stroke-linecap:butt; stroke-linejoin:round; stroke-width:4; stroke-opacity:1; fill:none" points="
  1434.32,1317.6 1453.22,1317.6 
  "/>
<polyline clip-path="url(#clip900)" style="stroke:#000000; stroke-linecap:butt; stroke-linejoin:round; stroke-width:4; stroke-opacity:1; fill:none" points="
  1434.32,1166.85 1453.22,1166.85 
  "/>
<polyline clip-path="url(#clip900)" style="stroke:#000000; stroke-linecap:butt; stroke-linejoin:round; stroke-width:4; stroke-opacity:1; fill:none" points="
  1434.32,1016.09 1453.22,1016.09 
  "/>
<polyline clip-path="url(#clip900)" style="stroke:#000000; stroke-linecap:butt; stroke-linejoin:round; stroke-width:4; stroke-opacity:1; fill:none" points="
  1434.32,865.335 1453.22,865.335 
  "/>
<path clip-path="url(#clip900)" d="M1386.37 1454.16 Q1382.76 1454.16 1380.93 1457.72 Q1379.13 1461.26 1379.13 1468.39 Q1379.13 1475.5 1380.93 1479.06 Q1382.76 1482.6 1386.37 1482.6 Q1390.01 1482.6 1391.81 1479.06 Q1393.64 1475.5 1393.64 1468.39 Q1393.64 1461.26 1391.81 1457.72 Q1390.01 1454.16 1386.37 1454.16 M1386.37 1450.45 Q1392.18 1450.45 1395.24 1455.06 Q1398.32 1459.64 1398.32 1468.39 Q1398.32 1477.12 1395.24 1481.73 Q1392.18 1486.31 1386.37 1486.31 Q1380.56 1486.31 1377.48 1481.73 Q1374.43 1477.12 1374.43 1468.39 Q1374.43 1459.64 1377.48 1455.06 Q1380.56 1450.45 1386.37 1450.45 Z" fill="#000000" fill-rule="evenodd" fill-opacity="1" /><path clip-path="url(#clip900)" d="M1289.92 1330.95 L1306.23 1330.95 L1306.23 1334.88 L1284.29 1334.88 L1284.29 1330.95 Q1286.95 1328.19 1291.54 1323.56 Q1296.14 1318.91 1297.32 1317.57 Q1299.57 1315.04 1300.45 1313.31 Q1301.35 1311.55 1301.35 1309.86 Q1301.35 1307.1 1299.41 1305.37 Q1297.48 1303.63 1294.38 1303.63 Q1292.18 1303.63 1289.73 1304.4 Q1287.3 1305.16 1284.52 1306.71 L1284.52 1301.99 Q1287.35 1300.85 1289.8 1300.28 Q1292.25 1299.7 1294.29 1299.7 Q1299.66 1299.7 1302.86 1302.38 Q1306.05 1305.07 1306.05 1309.56 Q1306.05 1311.69 1305.24 1313.61 Q1304.45 1315.51 1302.35 1318.1 Q1301.77 1318.77 1298.67 1321.99 Q1295.56 1325.18 1289.92 1330.95 Z" fill="#000000" fill-rule="evenodd" fill-opacity="1" /><path clip-path="url(#clip900)" d="M1316.1 1300.32 L1334.45 1300.32 L1334.45 1304.26 L1320.38 1304.26 L1320.38 1312.73 Q1321.4 1312.38 1322.42 1312.22 Q1323.43 1312.03 1324.45 1312.03 Q1330.24 1312.03 1333.62 1315.21 Q1337 1318.38 1337 1323.79 Q1337 1329.37 1333.53 1332.47 Q1330.05 1335.55 1323.73 1335.55 Q1321.56 1335.55 1319.29 1335.18 Q1317.05 1334.81 1314.64 1334.07 L1314.64 1329.37 Q1316.72 1330.51 1318.94 1331.06 Q1321.17 1331.62 1323.64 1331.62 Q1327.65 1331.62 1329.98 1329.51 Q1332.32 1327.4 1332.32 1323.79 Q1332.32 1320.18 1329.98 1318.08 Q1327.65 1315.97 1323.64 1315.97 Q1321.77 1315.97 1319.89 1316.39 Q1318.04 1316.8 1316.1 1317.68 L1316.1 1300.32 Z" fill="#000000" fill-rule="evenodd" fill-opacity="1" /><path clip-path="url(#clip900)" d="M1356.21 1303.4 Q1352.6 1303.4 1350.77 1306.97 Q1348.97 1310.51 1348.97 1317.64 Q1348.97 1324.74 1350.77 1328.31 Q1352.6 1331.85 1356.21 1331.85 Q1359.85 1331.85 1361.65 1328.31 Q1363.48 1324.74 1363.48 1317.64 Q1363.48 1310.51 1361.65 1306.97 Q1359.85 1303.4 1356.21 1303.4 M1356.21 1299.7 Q1362.02 1299.7 1365.08 1304.3 Q1368.16 1308.89 1368.16 1317.64 Q1368.16 1326.36 1365.08 1330.97 Q1362.02 1335.55 1356.21 1335.55 Q1350.4 1335.55 1347.32 1330.97 Q1344.27 1326.36 1344.27 1317.64 Q1344.27 1308.89 1347.32 1304.3 Q1350.4 1299.7 1356.21 1299.7 Z" fill="#000000" fill-rule="evenodd" fill-opacity="1" /><path clip-path="url(#clip900)" d="M1386.37 1303.4 Q1382.76 1303.4 1380.93 1306.97 Q1379.13 1310.51 1379.13 1317.64 Q1379.13 1324.74 1380.93 1328.31 Q1382.76 1331.85 1386.37 1331.85 Q1390.01 1331.85 1391.81 1328.31 Q1393.64 1324.74 1393.64 1317.64 Q1393.64 1310.51 1391.81 1306.97 Q1390.01 1303.4 1386.37 1303.4 M1386.37 1299.7 Q1392.18 1299.7 1395.24 1304.3 Q1398.32 1308.89 1398.32 1317.64 Q1398.32 1326.36 1395.24 1330.97 Q1392.18 1335.55 1386.37 1335.55 Q1380.56 1335.55 1377.48 1330.97 Q1374.43 1326.36 1374.43 1317.64 Q1374.43 1308.89 1377.48 1304.3 Q1380.56 1299.7 1386.37 1299.7 Z" fill="#000000" fill-rule="evenodd" fill-opacity="1" /><path clip-path="url(#clip900)" d="M1285.93 1149.57 L1304.29 1149.57 L1304.29 1153.5 L1290.22 1153.5 L1290.22 1161.97 Q1291.23 1161.63 1292.25 1161.46 Q1293.27 1161.28 1294.29 1161.28 Q1300.08 1161.28 1303.46 1164.45 Q1306.84 1167.62 1306.84 1173.04 Q1306.84 1178.62 1303.36 1181.72 Q1299.89 1184.8 1293.57 1184.8 Q1291.4 1184.8 1289.13 1184.43 Q1286.88 1184.06 1284.48 1183.32 L1284.48 1178.62 Q1286.56 1179.75 1288.78 1180.31 Q1291 1180.86 1293.48 1180.86 Q1297.48 1180.86 1299.82 1178.76 Q1302.16 1176.65 1302.16 1173.04 Q1302.16 1169.43 1299.82 1167.32 Q1297.48 1165.21 1293.48 1165.21 Q1291.61 1165.21 1289.73 1165.63 Q1287.88 1166.05 1285.93 1166.93 L1285.93 1149.57 Z" fill="#000000" fill-rule="evenodd" fill-opacity="1" /><path clip-path="url(#clip900)" d="M1326.05 1152.64 Q1322.44 1152.64 1320.61 1156.21 Q1318.8 1159.75 1318.8 1166.88 Q1318.8 1173.99 1320.61 1177.55 Q1322.44 1181.09 1326.05 1181.09 Q1329.68 1181.09 1331.49 1177.55 Q1333.32 1173.99 1333.32 1166.88 Q1333.32 1159.75 1331.49 1156.21 Q1329.68 1152.64 1326.05 1152.64 M1326.05 1148.94 Q1331.86 1148.94 1334.92 1153.55 Q1337.99 1158.13 1337.99 1166.88 Q1337.99 1175.61 1334.92 1180.21 Q1331.86 1184.8 1326.05 1184.8 Q1320.24 1184.8 1317.16 1180.21 Q1314.11 1175.61 1314.11 1166.88 Q1314.11 1158.13 1317.16 1153.55 Q1320.24 1148.94 1326.05 1148.94 Z" fill="#000000" fill-rule="evenodd" fill-opacity="1" /><path clip-path="url(#clip900)" d="M1356.21 1152.64 Q1352.6 1152.64 1350.77 1156.21 Q1348.97 1159.75 1348.97 1166.88 Q1348.97 1173.99 1350.77 1177.55 Q1352.6 1181.09 1356.21 1181.09 Q1359.85 1181.09 1361.65 1177.55 Q1363.48 1173.99 1363.48 1166.88 Q1363.48 1159.75 1361.65 1156.21 Q1359.85 1152.64 1356.21 1152.64 M1356.21 1148.94 Q1362.02 1148.94 1365.08 1153.55 Q1368.16 1158.13 1368.16 1166.88 Q1368.16 1175.61 1365.08 1180.21 Q1362.02 1184.8 1356.21 1184.8 Q1350.4 1184.8 1347.32 1180.21 Q1344.27 1175.61 1344.27 1166.88 Q1344.27 1158.13 1347.32 1153.55 Q1350.4 1148.94 1356.21 1148.94 Z" fill="#000000" fill-rule="evenodd" fill-opacity="1" /><path clip-path="url(#clip900)" d="M1386.37 1152.64 Q1382.76 1152.64 1380.93 1156.21 Q1379.13 1159.75 1379.13 1166.88 Q1379.13 1173.99 1380.93 1177.55 Q1382.76 1181.09 1386.37 1181.09 Q1390.01 1181.09 1391.81 1177.55 Q1393.64 1173.99 1393.64 1166.88 Q1393.64 1159.75 1391.81 1156.21 Q1390.01 1152.64 1386.37 1152.64 M1386.37 1148.94 Q1392.18 1148.94 1395.24 1153.55 Q1398.32 1158.13 1398.32 1166.88 Q1398.32 1175.61 1395.24 1180.21 Q1392.18 1184.8 1386.37 1184.8 Q1380.56 1184.8 1377.48 1180.21 Q1374.43 1175.61 1374.43 1166.88 Q1374.43 1158.13 1377.48 1153.55 Q1380.56 1148.94 1386.37 1148.94 Z" fill="#000000" fill-rule="evenodd" fill-opacity="1" /><path clip-path="url(#clip900)" d="M1284.71 998.81 L1306.93 998.81 L1306.93 1000.8 L1294.38 1033.37 L1289.5 1033.37 L1301.3 1002.75 L1284.71 1002.75 L1284.71 998.81 Z" fill="#000000" fill-rule="evenodd" fill-opacity="1" /><path clip-path="url(#clip900)" d="M1316.1 998.81 L1334.45 998.81 L1334.45 1002.75 L1320.38 1002.75 L1320.38 1011.22 Q1321.4 1010.87 1322.42 1010.71 Q1323.43 1010.52 1324.45 1010.52 Q1330.24 1010.52 1333.62 1013.69 Q1337 1016.87 1337 1022.28 Q1337 1027.86 1333.53 1030.96 Q1330.05 1034.04 1323.73 1034.04 Q1321.56 1034.04 1319.29 1033.67 Q1317.05 1033.3 1314.64 1032.56 L1314.64 1027.86 Q1316.72 1029 1318.94 1029.55 Q1321.17 1030.11 1323.64 1030.11 Q1327.65 1030.11 1329.98 1028 Q1332.32 1025.89 1332.32 1022.28 Q1332.32 1018.67 1329.98 1016.56 Q1327.65 1014.46 1323.64 1014.46 Q1321.77 1014.46 1319.89 1014.88 Q1318.04 1015.29 1316.1 1016.17 L1316.1 998.81 Z" fill="#000000" fill-rule="evenodd" fill-opacity="1" /><path clip-path="url(#clip900)" d="M1356.21 1001.89 Q1352.6 1001.89 1350.77 1005.45 Q1348.97 1009 1348.97 1016.13 Q1348.97 1023.23 1350.77 1026.8 Q1352.6 1030.34 1356.21 1030.34 Q1359.85 1030.34 1361.65 1026.8 Q1363.48 1023.23 1363.48 1016.13 Q1363.48 1009 1361.65 1005.45 Q1359.85 1001.89 1356.21 1001.89 M1356.21 998.185 Q1362.02 998.185 1365.08 1002.79 Q1368.16 1007.38 1368.16 1016.13 Q1368.16 1024.85 1365.08 1029.46 Q1362.02 1034.04 1356.21 1034.04 Q1350.4 1034.04 1347.32 1029.46 Q1344.27 1024.85 1344.27 1016.13 Q1344.27 1007.38 1347.32 1002.79 Q1350.4 998.185 1356.21 998.185 Z" fill="#000000" fill-rule="evenodd" fill-opacity="1" /><path clip-path="url(#clip900)" d="M1386.37 1001.89 Q1382.76 1001.89 1380.93 1005.45 Q1379.13 1009 1379.13 1016.13 Q1379.13 1023.23 1380.93 1026.8 Q1382.76 1030.34 1386.37 1030.34 Q1390.01 1030.34 1391.81 1026.8 Q1393.64 1023.23 1393.64 1016.13 Q1393.64 1009 1391.81 1005.45 Q1390.01 1001.89 1386.37 1001.89 M1386.37 998.185 Q1392.18 998.185 1395.24 1002.79 Q1398.32 1007.38 1398.32 1016.13 Q1398.32 1024.85 1395.24 1029.46 Q1392.18 1034.04 1386.37 1034.04 Q1380.56 1034.04 1377.48 1029.46 Q1374.43 1024.85 1374.43 1016.13 Q1374.43 1007.38 1377.48 1002.79 Q1380.56 998.185 1386.37 998.185 Z" fill="#000000" fill-rule="evenodd" fill-opacity="1" /><path clip-path="url(#clip900)" d="M1256.54 878.68 L1264.17 878.68 L1264.17 852.314 L1255.86 853.981 L1255.86 849.721 L1264.13 848.055 L1268.8 848.055 L1268.8 878.68 L1276.44 878.68 L1276.44 882.615 L1256.54 882.615 L1256.54 878.68 Z" fill="#000000" fill-rule="evenodd" fill-opacity="1" /><path clip-path="url(#clip900)" d="M1295.89 851.133 Q1292.28 851.133 1290.45 854.698 Q1288.64 858.24 1288.64 865.369 Q1288.64 872.476 1290.45 876.041 Q1292.28 879.582 1295.89 879.582 Q1299.52 879.582 1301.33 876.041 Q1303.16 872.476 1303.16 865.369 Q1303.16 858.24 1301.33 854.698 Q1299.52 851.133 1295.89 851.133 M1295.89 847.43 Q1301.7 847.43 1304.75 852.036 Q1307.83 856.62 1307.83 865.369 Q1307.83 874.096 1304.75 878.703 Q1301.7 883.286 1295.89 883.286 Q1290.08 883.286 1287 878.703 Q1283.94 874.096 1283.94 865.369 Q1283.94 856.62 1287 852.036 Q1290.08 847.43 1295.89 847.43 Z" fill="#000000" fill-rule="evenodd" fill-opacity="1" /><path clip-path="url(#clip900)" d="M1326.05 851.133 Q1322.44 851.133 1320.61 854.698 Q1318.8 858.24 1318.8 865.369 Q1318.8 872.476 1320.61 876.041 Q1322.44 879.582 1326.05 879.582 Q1329.68 879.582 1331.49 876.041 Q1333.32 872.476 1333.32 865.369 Q1333.32 858.24 1331.49 854.698 Q1329.68 851.133 1326.05 851.133 M1326.05 847.43 Q1331.86 847.43 1334.92 852.036 Q1337.99 856.62 1337.99 865.369 Q1337.99 874.096 1334.92 878.703 Q1331.86 883.286 1326.05 883.286 Q1320.24 883.286 1317.16 878.703 Q1314.11 874.096 1314.11 865.369 Q1314.11 856.62 1317.16 852.036 Q1320.24 847.43 1326.05 847.43 Z" fill="#000000" fill-rule="evenodd" fill-opacity="1" /><path clip-path="url(#clip900)" d="M1356.21 851.133 Q1352.6 851.133 1350.77 854.698 Q1348.97 858.24 1348.97 865.369 Q1348.97 872.476 1350.77 876.041 Q1352.6 879.582 1356.21 879.582 Q1359.85 879.582 1361.65 876.041 Q1363.48 872.476 1363.48 865.369 Q1363.48 858.24 1361.65 854.698 Q1359.85 851.133 1356.21 851.133 M1356.21 847.43 Q1362.02 847.43 1365.08 852.036 Q1368.16 856.62 1368.16 865.369 Q1368.16 874.096 1365.08 878.703 Q1362.02 883.286 1356.21 883.286 Q1350.4 883.286 1347.32 878.703 Q1344.27 874.096 1344.27 865.369 Q1344.27 856.62 1347.32 852.036 Q1350.4 847.43 1356.21 847.43 Z" fill="#000000" fill-rule="evenodd" fill-opacity="1" /><path clip-path="url(#clip900)" d="M1386.37 851.133 Q1382.76 851.133 1380.93 854.698 Q1379.13 858.24 1379.13 865.369 Q1379.13 872.476 1380.93 876.041 Q1382.76 879.582 1386.37 879.582 Q1390.01 879.582 1391.81 876.041 Q1393.64 872.476 1393.64 865.369 Q1393.64 858.24 1391.81 854.698 Q1390.01 851.133 1386.37 851.133 M1386.37 847.43 Q1392.18 847.43 1395.24 852.036 Q1398.32 856.62 1398.32 865.369 Q1398.32 874.096 1395.24 878.703 Q1392.18 883.286 1386.37 883.286 Q1380.56 883.286 1377.48 878.703 Q1374.43 874.096 1374.43 865.369 Q1374.43 856.62 1377.48 852.036 Q1380.56 847.43 1386.37 847.43 Z" fill="#000000" fill-rule="evenodd" fill-opacity="1" /><polyline clip-path="url(#clip905)" style="stroke:#009af9; stroke-linecap:butt; stroke-linejoin:round; stroke-width:4; stroke-opacity:1; fill:none" points="
  1460.31,865.335 1503.63,1072.71 1546.96,1221.36 1590.28,1323.57 1633.6,1390.21 1676.92,1430.67 1720.25,1452.92 1763.57,1463.47 1806.89,1467.39 1850.21,1468.3 
  1893.54,1468.36 1936.86,1468.3 1980.18,1467.39 2023.5,1463.47 2066.83,1452.92 2110.15,1430.67 2153.47,1390.21 2196.79,1323.57 2240.12,1221.36 2283.44,1072.71 
  2326.76,865.335 
  "/>
</svg>
